#N canvas 68 25 1372 780 12;
#X obj 53 188 f;
#X obj 53 275 print;
#X floatatom 53 122 5 0 0 0 - - -;
#X obj 411 188 f;
#X obj 411 275 print;
#X floatatom 429 122 5 0 0 0 - - -;
#X obj 791 188 f;
#X obj 791 275 print;
#X floatatom 809 122 5 0 0 0 - - -;
#X obj 791 122 bng 15 250 50 0 empty empty empty 17 7 0 10 -262144
-1 -1;
#X obj 53 522 f;
#X obj 53 615 print;
#X obj 53 425 bng 15 250 50 0 empty empty empty 17 7 0 10 -262144 -1
-1;
#X obj 110 522 + 1;
#X obj 411 522 f;
#X obj 411 615 print;
#X obj 411 425 bng 15 250 50 0 empty empty empty 17 7 0 10 -262144
-1 -1;
#X obj 468 521 + 1;
#X obj 468 557 mod 5;
#X obj 791 522 f;
#X obj 791 425 bng 15 250 50 0 empty empty empty 17 7 0 10 -262144
-1 -1;
#X obj 848 508 + 1;
#X obj 848 544 mod 5;
#X floatatom 880 508 5 0 0 0 - - -;
#X floatatom 791 615 5 0 0 0 - - -;
#X text 42 74 1;
#X text 400 74 2;
#X text 780 74 3;
#X text 42 370 4;
#X text 400 370 5;
#X text 780 370 6;
#X text 477 140 Value is stored (no output).;
#X text 102 139 Value appears at output immediately.;
#X text 102 117 Number box to HOT inlet of [float].;
#X text 477 118 Number box to COLD inlet of [float].;
#X text 860 118 Number box to COLD inlet of [float].;
#X text 81 464 then stored again: an infinite counter.;
#X text 822 421 Adding a number box to the cold inlet of;
#X text 819 442 [mod] lets us vary the sequence length.;
#X text 859 140 Bang to HOT inlet outputs stored value.;
#X text 81 421 Bang outputs the value stored in [float].;
#X text 81 442 That output is passed through [+ 1] and;
#X text 440 421 A modulo function after [+ 1] can be used to;
#X text 439 442 set the sequence length. [mod] outputs the;
#X text 439 463 remainder of: the counter total divided by the;
#X text 440 484 desired sequence length (e.g. 5 steps here).;
#X text 466 592 Note: 5 steps = 0-4;
#X text 513 7 Developing a Simple Counter;
#X connect 0 0 1 0;
#X connect 2 0 0 0;
#X connect 3 0 4 0;
#X connect 5 0 3 1;
#X connect 6 0 7 0;
#X connect 8 0 6 1;
#X connect 9 0 6 0;
#X connect 10 0 11 0;
#X connect 10 0 13 0;
#X connect 12 0 10 0;
#X connect 13 0 10 1;
#X connect 14 0 15 0;
#X connect 14 0 17 0;
#X connect 16 0 14 0;
#X connect 17 0 18 0;
#X connect 18 0 14 1;
#X connect 19 0 21 0;
#X connect 19 0 24 0;
#X connect 20 0 19 0;
#X connect 21 0 22 0;
#X connect 22 0 19 1;
#X connect 23 0 22 1;
