#N canvas 0 25 1440 789 12;
#X obj 760 160 f;
#X obj 817 146 + 1;
#X floatatom 849 117 5 0 0 0 - - -;
#X floatatom 760 196 5 0 0 0 - - -;
#X obj 817 176 mod 4;
#X obj 760 57 tgl 15 0 empty empty empty 17 7 0 10 -262144 -1 -1 0
1;
#X obj 760 86 metro 500;
#X floatatom 820 56 5 0 0 0 - - -;
#X msg 865 19 250;
#X msg 908 19 500;
#X msg 820 19 125;
#X msg 760 297 60;
#X msg 798 297 62;
#X msg 839 297 64;
#X msg 877 297 65;
#X obj 760 117 bng 15 250 50 0 empty empty empty 17 7 0 10 -262144
-1 -1;
#X obj 760 227 select 0 1 2 3 4;
#X obj 760 257 bng 15 250 50 0 empty empty empty 17 7 0 10 -262144
-1 -1;
#X obj 781 257 bng 15 250 50 0 empty empty empty 17 7 0 10 -262144
-1 -1;
#X obj 803 257 bng 15 250 50 0 empty empty empty 17 7 0 10 -262144
-1 -1;
#X obj 825 257 bng 15 250 50 0 empty empty empty 17 7 0 10 -262144
-1 -1;
#X obj 847 257 bng 15 250 50 0 empty empty empty 17 7 0 10 -262144
-1 -1;
#X msg 914 297 69;
#X floatatom 760 341 5 0 0 0 - - -;
#X obj 760 371 makenote 64 250;
#X obj 760 412 noteout 1;
#X connect 0 0 1 0;
#X connect 0 0 3 0;
#X connect 1 0 4 0;
#X connect 2 0 4 1;
#X connect 3 0 16 0;
#X connect 4 0 0 1;
#X connect 5 0 6 0;
#X connect 6 0 15 0;
#X connect 7 0 6 1;
#X connect 8 0 7 0;
#X connect 9 0 7 0;
#X connect 10 0 7 0;
#X connect 11 0 23 0;
#X connect 12 0 23 0;
#X connect 13 0 23 0;
#X connect 14 0 23 0;
#X connect 15 0 0 0;
#X connect 16 0 17 0;
#X connect 16 1 18 0;
#X connect 16 2 19 0;
#X connect 16 3 20 0;
#X connect 16 4 21 0;
#X connect 17 0 11 0;
#X connect 18 0 12 0;
#X connect 19 0 13 0;
#X connect 20 0 14 0;
#X connect 21 0 22 0;
#X connect 22 0 23 0;
#X connect 23 0 24 0;
#X connect 24 0 25 0;
#X connect 24 1 25 1;
